<svg width="56" height="48" viewBox="0 0 56 48" fill="none" xmlns="http://www.w3.org/2000/svg">
<path d="M43.077 0.0625C41.8907 0.0625 40.9231 0.960938 40.9231 2.0625V11.625L29.5481 1.0625C28.7068 0.28125 27.2933 0.28125 26.452 1.0625L1.21158 24.5625C0.37023 25.3438 0.37023 26.5938 1.21158 27.375C2.05292 28.1562 3.39908 28.1562 4.24042 27.375L28 5.3125L51.827 27.4375C52.2476 27.8281 52.8198 28.0625 53.375 28.0625C53.9303 28.0625 54.4351 27.8281 54.8558 27.4375C55.6972 26.6562 55.6972 25.4062 54.8558 24.625L47.3847 17.6875V2.0625C47.3847 0.960938 46.4171 0.0625 45.2308 0.0625H43.077ZM28 9L4.30773 31V42C4.30773 45.3125 7.20196 48 10.7693 48H45.2308C48.7981 48 51.6923 45.3125 51.6923 42V31L28 9ZM23.6923 28H32.3077C33.494 28 34.4616 28.8984 34.4616 30V42C34.4616 43.1016 33.494 44 32.3077 44H23.6923C22.506 44 21.5385 43.1016 21.5385 42V30C21.5385 28.8984 22.506 28 23.6923 28Z" fill="white"/>
</svg>
